<svg xmlns="http://www.w3.org/2000/svg" viewBox="-67.96 -65.16 495.26 434.34" role="img">
  <title>GL country outline</title>
  <defs>
    <linearGradient id="landGrad" x1="0%" y1="0%" x2="100%" y2="100%">
      <stop offset="0%" stop-color="#10B981" stop-opacity="0.22"/>
      <stop offset="100%" stop-color="#F59E0B" stop-opacity="0.10"/>
    </linearGradient>
    <filter id="shadow" x="-20%" y="-20%" width="140%" height="140%">
      <feDropShadow dx="0" dy="3" stdDeviation="3" flood-color="#059669" flood-opacity="0.20"/>
    </filter>
  </defs>
  <g fill="url(#landGrad)" stroke="#059669" stroke-width="6.01" stroke-linecap="round" stroke-linejoin="round" filter="url(#shadow)">
    <g id="gl">
        <path  d="M292.587,282.398l-1.176,1.877l2.118,2.117l-0.942,2.118l3.06,3.994l3.761-1.176l4.936-0.466l5.644,6.111l3.761,10.104l-3.051,6.345l4.227-0.708l2.354,1.409l0.232,3.06l-5.168,0.233l2.818,2.817l3.526,0.709l-7.754,10.339l-0.942,6.345l1.643,5.169l-1.176,3.06l2.118,6.578l3.993,4.469l1.176-0.232l2.584-0.709l0.233,3.76l1.642,2.352l3.052-0.234l2.353-8.695l7.053-8.697l10.581-4.227l6.578-8.229l3.05,1.408h6.345l5.17-5.168l6.346-2.584l0.708-3.994l-3.993-3.527l-3.526-1.175l-1.885-4.937l4.469-2.584l7.054,3.76l2.353-2.584l-3.761-2.117l7.996-10.813l-1.409-4.702l-3.761-0.232l1.408-4.228l4.703-2.118l9.637-8.461l-2.816-3.053l-10.814,0.941l-5.645,5.646l3.295-7.287l-3.762-0.942l-2.117,3.761l-3.051-2.585l-8.464,0.941l2.353-3.76l13.865-0.467l-3.527-4.702l-15.04-2.817l-6.11,0.941l0.233,3.061l-6.345-2.118l0.232-2.118l-4.47,0.941l-0.942,2.353l4.703,1.642l-4.936,3.527l-3.527-3.994l-4.936-1.408l-0.709,3.76h-4.937l-1.885-3.994l-7.754-1.176l-4.228,2.117l-0.233,2.818l-5.402-0.709l-3.294,1.409l0.234,3.293v1.644l-6.111,1.176l-2.818-1.877l-1.885,3.052l2.819,3.06l5.878-0.709l0.467,1.885l-4.469,2.118L292.587,282.398L292.587,282.398z"/>
        <path d="M311.396,319.066l1.409,2.119l-0.708,2.584h-1.409l-1.885-2.119l0.467-1.643L311.396,319.066L311.396,319.066z"/>
        <path d="M370.159,313.189l3.993,1.176l-0.234,3.293l-4.227-2.118l-0.942-1.176L370.159,313.189L370.159,313.189z"/>
    </g>
  </g>
</svg>