<svg xmlns="http://www.w3.org/2000/svg" viewBox="-97.91 -89.44 736.53 726.95" role="img">
  <title>Pakistan country outline</title>
  <defs>
    <linearGradient id="landGrad" x1="0%" y1="0%" x2="100%" y2="100%">
      <stop offset="0%" stop-color="#10B981" stop-opacity="0.22"/>
      <stop offset="100%" stop-color="#F59E0B" stop-opacity="0.10"/>
    </linearGradient>
    <filter id="shadow" x="-20%" y="-20%" width="140%" height="140%">
      <feDropShadow dx="0" dy="3" stdDeviation="3" flood-color="#059669" flood-opacity="0.20"/>
    </filter>
  </defs>
  <g fill="url(#landGrad)" stroke="#059669" stroke-width="10.07" stroke-linecap="round" stroke-linejoin="round" filter="url(#shadow)">
    <path id="pk" d="M553.638,455.082l2.248,3.337l-0.216,1.72l-2.991,1.186l-0.217,2.801h3.424l1.175-0.969h6.519l5.878,5.17l0.752-2.481h4.383l0.104-3.12l-4.486-4.305l0.96-2.369l4.598-0.318l6.199-12.924l-3.425-2.688l-1.278-4.521l8.333-0.752l-4.917-7l-2.62-0.709l-1.07,1.297l-0.805,0.061l-4.919,3.12l1.608,2.696l-1.815,1.937l-2.249,8.29l-5.558,3.553l-0.752,3.882L553.638,455.082L553.638,455.082z"/>
  </g>
</svg>