<svg xmlns="http://www.w3.org/2000/svg" viewBox="0 0 360 260" role="img" aria-labelledby="title desc">
  <title id="title">Estonia country outline</title>
  <desc id="desc">Estonia country outline centered on canvas, derived from Natural Earth public-domain admin-0 geometry.</desc>
  <rect width="360" height="260" rx="24" fill="#f8fafc"/>
  <defs>
    <linearGradient id="estonia-land" x1="0" x2="1" y1="0" y2="1">
      <stop offset="0" stop-color="#ddeceb"/>
      <stop offset="0.55" stop-color="#cfddfb"/>
      <stop offset="1" stop-color="#fce4bb"/>
    </linearGradient>
    <filter id="estonia-shadow" x="-20%" y="-20%" width="140%" height="140%">
      <feDropShadow dx="0" dy="10" stdDeviation="10" flood-color="#0b554f" flood-opacity="0.12"/>
    </filter>
  </defs>
  <g transform="translate(70.249, 42.583) scale(0.479555)" fill="url(#estonia-land)" stroke="#0f766e" stroke-width="3.545" stroke-linejoin="round" filter="url(#estonia-shadow)">
    <g id="ee">
        <path  d="M462.562,363.299l-4.84-0.173l-3.068,1.875l-0.043,1.392l1.987,1.875l6.182,1.047L462.562,363.299L462.562,363.299z"/>
        <path d="M452.236,364.042l-1.308,0.44l1.308,0.226l0.595,0.69l0.711-0.852l-0.709-1.215L452.236,364.042z"/>
        <path d="M452.792,365.792l-1.862,0.833l-0.643,1.111l0.643,0.722l2.362-0.875l1.137-0.752L452.792,365.792z"/>
    </g>
  </g>
  <g fill="none" stroke="#f59e0b" stroke-width="1.1" opacity="0.18">
    <path d="M94 112 C130 98 172 104 214 94 C238 89 260 98 279 116"/>
    <path d="M112 145 C148 132 188 136 224 126 C242 121 260 126 274 139"/>
  </g>
  <circle cx="180" cy="132" r="4" fill="#0b554f"/>
  <text x="181" y="238" text-anchor="middle" font-family="Inter, Arial, sans-serif" font-size="13" font-weight="760" fill="#475569">Estonia</text>
</svg>