<svg xmlns="http://www.w3.org/2000/svg" viewBox="0 0 360 260" role="img" aria-labelledby="title desc">
  <title id="title">Germany country outline</title>
  <desc id="desc">Germany country outline centered on canvas, derived from Natural Earth public-domain admin-0 geometry.</desc>
  <rect width="360" height="260" rx="24" fill="#f8fafc"/>
  <defs>
    <linearGradient id="germanyLand" x1="0" x2="1" y1="0" y2="1">
      <stop offset="0" stop-color="#eeeeee"/>
      <stop offset="0.55" stop-color="#faeced"/>
      <stop offset="1" stop-color="#fefaed"/>
    </linearGradient>
    <filter id="softShadow" x="-20%" y="-20%" width="140%" height="140%">
      <feDropShadow dx="0" dy="10" stdDeviation="10" flood-color="#c1121f" flood-opacity="0.10"/>
    </filter>
  </defs>
  <g transform="translate(-3009.892, -2714.805) scale(7.319)" fill="url(#germanyLand)" stroke="#111111" stroke-width="0.205" stroke-linejoin="round" filter="url(#softShadow)">
    <path id="de" d="M422.257,384.234l3.086-0.5v-2.178l2.584-0.425l1.418,1.427l1.495,0.164l2.334-1.012l2.083,0.588l1.832,1.592l0.251,5.955l1.832,2.438l-2.411,0.337l-4.003,2.515l0.338,0.839l3.579,3.354l-0.251,1.677l-3.328,1.677l-3.085,0.086l-0.753,1.59h-1.581l-0.752-1.676l-2.749-0.675l-0.088-2.767l-1.39-0.77l0.114-1.861l-0.406-1.328l-1.982-1.824l0.414-2.854l2.161-1.011L422.257,384.234L422.257,384.234z"/>
  </g>
  <circle cx="180" cy="130" r="4" fill="#111111"/>
  <text x="181" y="238" text-anchor="middle" font-family="Inter, Arial, sans-serif" font-size="13" font-weight="760" fill="#475569">Germany</text>
</svg>